<svg xmlns="http://www.w3.org/2000/svg" xml:space="preserve" id="Ebene_1" x="0" y="0" style="enable-background:new 0 0 500 500" version="1.1" viewBox="0 0 500 500"><style>.st0{fill:#91979c}</style><path d="M395.39999 191.2 356.6 207.5c.20001 2.7.29999 5.5.29999 8.2 0 58.8-47.79999 106.59999-106.60001 106.59999s-106.6-47.79999-106.6-106.60001c0-2.60001.10001-5.2.3-7.8l-38.8-16.39999c-1.3 7.89999-2 16-2 24.3 0 81.29999 65.89999 147.10001 147.10001 147.10001S397.5 297 397.5 215.7c0-8.4-.70001-16.5-2.10001-24.5z" class="st0"/><path d="M47.6 144.5v-41.8l187.79999-77.5v39.7L87.9 124.1l147.49999 56.29999V220zM262.70001 180.8l150.5-57.5-150.5-58.7V25.4l190.4 77.5v41.6l-190.4 75.7zM296.5 355.39999l34.70001 8.29999v-25C320.5 345.70001 308.89999 351.29999 296.5 355.39999z" class="st0"/><path d="M171.10001 416.79999c5.89999 23.10001 57 36.29999 77.10001 58.39999 10-11 31.10001-19.79999 47.79999-28.70001l-124.9-29.69998z" style="fill-rule:evenodd;clip-rule:evenodd;fill:#91979c"/><path d="M170.3 375v29.60001l140.7 33.5C321.20001 431.70002 329 424.9 331.29999 417v-3.70001L170.3 375zM250.39999 362.79999c-29.60001 0-57-8.70001-80.10001-23.70001V365l160.89999 38.39999v-29.60001L276 360.60001c-8.29999 1.39999-16.89999 2.19998-25.60001 2.19998z" class="st0"/></svg>