<svg xmlns="http://www.w3.org/2000/svg" width="12.61" height="16" viewBox="0 0 12.61 16"><defs><style>.a,.b{fill:#91979c;}.a{fill-rule:evenodd;}</style></defs><title>icon_academy</title><path class="a" d="M8.24,13.47,10,12.82h0l1.77-.65.31.83a11.32,11.32,0,0,1-3.82.54l0-.07Zm3.92-.25.17.46a11.32,11.32,0,0,1-3.82.54l-.11-.3a11.6,11.6,0,0,0,3.76-.7Zm.25.68,0,.09a.54.54,0,0,1-.06.43,11.29,11.29,0,0,1-3.62.48l-.11-.3a11.58,11.58,0,0,0,3.76-.7Zm-.25.85a6.81,6.81,0,0,0-1,1.26h0c-.66-.34-2.07-.16-2.27-.72h0a12,12,0,0,0,3.26-.52Z"/><path class="a" d="M11.77,12.17l-1,.37q0,.39,0,.79A11.74,11.74,0,0,0,12.08,13l-.31-.83Z"/><path class="a" d="M12.16,13.21a9.77,9.77,0,0,1-1.37.41v.05q0,.19,0,.38a11.69,11.69,0,0,0,1.54-.38l-.17-.46Z"/><path class="a" d="M12.41,13.89a10,10,0,0,1-1.63.46c0,.14,0,.28,0,.42a11.53,11.53,0,0,0,1.63-.36.54.54,0,0,0,.06-.43l0-.09Z"/><path class="a" d="M12.16,14.74a10.82,10.82,0,0,1-1.43.34c0,.14,0,.28,0,.43v0l0,.15,0,.13.19,0,.14,0h0l0,0h0l.1,0,0,0h0v0h0l0,0v0a2.45,2.45,0,0,1,.23-.33h0c.21-.26.48-.53.68-.78Z"/><path class="a" d="M5,8.5a3.69,3.69,0,0,0,.45.5c.51.48,1.1.88,1.62,1.37a7,7,0,0,1,1.44,1.92l1-.38-.27-.73a.4.4,0,1,1,.28-.1l.27.73,1-.38-.18.07s.12,0,.12,0c0,.21.14.56-.05.7l.94-.35-1.77.65-1.77.65C6.9,10.21,4.91,10.2,4,8.24A3.25,3.25,0,0,0,5,8.5Z"/><path class="a" d="M11,6.93c-.08.7-.27,1.38-.35,2.09a7,7,0,0,0,.15,2.4l-.18.07c0,.23.05.47.07.71l.94-.35c-1-3.11.61-4.39-.11-6.54a2.66,2.66,0,0,1-.51.88,3.6,3.6,0,0,1,0,.75Z"/><path class="b" d="M7.58,5.27a.62.62,0,0,1-.6.22L1.43,5.36l-1.17,0H.08a.45.45,0,0,1,0-.45L5,.24A.56.56,0,0,1,5.63,0l6.72.15a.45.45,0,0,1,.26.37h0l-.47.42L10.49,2.64,7.58,5.27Z"/><path class="b" d="M3.07,5.8l.66,1.78h0c.24.65,2.55.91,4.42.22s3.38-2.38,3.14-3h0L10.64,3,7.73,5.67a.62.62,0,0,1-.6.22L3.07,5.8Z"/><path class="b" d="M1.53,4.66v.7H1.11V4.48l.39-.14,4-1.47a.71.71,0,0,1,.19-.44,1,1,0,0,1,.41-.27,1,1,0,0,1,.49-.06A.7.7,0,0,1,7,2.32a.55.55,0,0,1,.1.54.91.91,0,0,1-.57.54.9.9,0,0,1-.78,0,.59.59,0,0,1-.19-.18l-4,1.48Z"/><path class="b" d="M1.77,8.23c0,.59-.26,1.38-.45,1.38s-.44-.8-.44-1.4V8.15h0V8.07h0v0h.21V5.35h.43V7.52h.09l0,.07h0l0,0h0l0,.05h0a1,1,0,0,1,0,.17h0V8h0V8h0V8h0v0h0v0h0v0h0v0h0v0h0v0h0v0h0v.06Z"/><path class="a" d="M12.34.17,5.63,0A.56.56,0,0,0,5,.24L4.86.39a18.3,18.3,0,0,1,1.65,1.7h.06A.7.7,0,0,1,7,2.32a.53.53,0,0,1,.13.34.62.62,0,0,1,0,.18A18,18,0,0,1,8.31,4.61l2.18-2L12.57.75v0a.44.44,0,0,0-.24-.56Z"/><path class="a" d="M10.64,3,8.53,4.95a17.78,17.78,0,0,1,1,2.13c1.16-.79,1.94-1.83,1.76-2.31L10.64,3Z"/></svg>