<svg xmlns="http://www.w3.org/2000/svg" xml:space="preserve" id="Ebene_1" x="0" y="0" style="enable-background:new 0 0 500 500" version="1.1" viewBox="0 0 500 500"><style>.st0{fill:#fff}</style><path d="m411 184.3-43.1 18.1c.2 3 .3 6.1.3 9.1 0 65.3-53.1 118.3-118.3 118.3s-118.3-53.1-118.3-118.3c0-2.9.1-5.8.3-8.7l-43.1-18.2c-1.4 8.8-2.2 17.8-2.2 27 0 90.2 73.1 163.3 163.3 163.3s163.4-73.1 163.4-163.4c0-9.4-.8-18.4-2.3-27.2z" class="st0"/><path d="M24.9 132.4V86L233.4 0v44.1L69.6 109.8l163.8 62.5v43.9zM263.7 172.7l167-63.8-167-65.2V.2l211.3 86v46.2l-211.3 84.1zM301.2 366.5l38.5 9.2V348c-11.9 7.8-24.8 14-38.5 18.5z" class="st0"/><path d="M162 434.7c6.5 25.6 63.3 40.3 85.6 64.8 11.1-12.2 34.5-22 53.1-31.9L162 434.7z" style="fill-rule:evenodd;clip-rule:evenodd;fill:#fff"/><path d="M161.1 388.3v32.9l156.2 37.2c11.3-7.1 20-14.7 22.5-23.4v-4.1l-178.7-42.6zM250 374.7c-32.9 0-63.3-9.7-88.9-26.3v28.7l178.6 42.6v-32.9l-61.3-14.7c-9.2 1.8-18.7 2.6-28.4 2.6z" class="st0"/></svg>